# xmcd
#
# Track frame offsets: 
#        150
#        17060
#        33272
#        47580
#        63662
#        79670
#        96352
#        112867
#        134200
#        151685
#        171087
#        189232
#        205955
#        224515
#        243295
#        258860
#
# Disc length: 3727 seconds
#
# Revision: 1
# Processed by: cddbd v1.5.2PL0 Copyright (c) Steve Scherf et al.
# Submitted via: ExactAudioCopy v1.3
#
DISCID=d60e8d10
DTITLE=徐小鳳 - 徐小鳳金曲精選
DYEAR=1986
DGENRE=Pop
TTITLE0=順流、逆流
TTITLE1=風之路
TTITLE2=情比雨絲
TTITLE3=風裡的呼喚
TTITLE4=隨想曲
TTITLE5=星星問
TTITLE6=嘆息
TTITLE7=獻君千闋歌
TTITLE8=星光的背影
TTITLE9=三分、七分
TTITLE10=破曉時分
TTITLE11=不變的伴侶
TTITLE12=愛的歌
TTITLE13=萬里星河
TTITLE14=愛和夢
TTITLE15=冷風過後
EXTD=
EXTT0=
EXTT1=
EXTT2=
EXTT3=
EXTT4=
EXTT5=
EXTT6=
EXTT7=
EXTT8=
EXTT9=
EXTT10=
EXTT11=
EXTT12=
EXTT13=
EXTT14=
EXTT15=
PLAYORDER=
